<?xml version="1.0" encoding="utf-8"?>
<!-- Generator: Adobe Illustrator 19.0.0, SVG Export Plug-In . SVG Version: 6.00 Build 0)  -->
<svg version="1.1" id="Camada_1" xmlns="http://www.w3.org/2000/svg" xmlns:xlink="http://www.w3.org/1999/xlink" x="0px" y="0px"
	 viewBox="0 0 48 48" style="enable-background:new 0 0 48 48;" xml:space="preserve">
<style type="text/css">
	.st0{fill:#C20831;}
	.st1{fill:#FFFFFF;}
	.st2{font-family:'TitilliumWeb-Regular';}
	.st3{font-size:28px;}
	.st4{font-size:16px;}
</style>
<g id="XMLID_170_">
	<path id="XMLID_1620_" class="st0" d="M8.4,39.9L2.4,29.5c-2-3.4-2-7.6,0-11L8.4,8.1c2-3.3,5.5-5.4,9.4-5.4h12.3
		c3.9,0,7.4,2.1,9.4,5.4l6.1,10.4c2,3.4,2,7.6,0,11l-6.1,10.4c-2,3.3-5.5,5.4-9.4,5.4H17.8C14,45.3,10.4,43.2,8.4,39.9z"/>
	<text id="XMLID_1619_" transform="matrix(1 0 0 1 10.93 31.601)"><tspan x="0" y="0" class="st1 st2 st3">5</tspan><tspan x="15.7" y="0" class="st1 st2 st4">X</tspan></text>
</g>
</svg>
