<?xml version="1.0" encoding="utf-8"?>
<!-- Generator: Adobe Illustrator 19.0.0, SVG Export Plug-In . SVG Version: 6.00 Build 0)  -->
<svg version="1.1" id="Camada_1" xmlns="http://www.w3.org/2000/svg" xmlns:xlink="http://www.w3.org/1999/xlink" x="0px" y="0px"
	 viewBox="0 0 40 25" style="enable-background:new 0 0 40 25;" xml:space="preserve">
<style type="text/css">
	.st0{fill:#FFFFFF;}
</style>
<path id="XMLID_1295_" class="st0" d="M39,3.7c0,0.5,0,0.9,0,1.4c0,0.6-0.3,0.9-0.9,1c-1.5,0-2.9,0.1-4.3,0.5
	c-5.4,1.2-8.6,4.7-9.9,10c-0.4,1.7-0.6,3.5-0.6,5.3c0,0.4-0.2,0.7-0.5,1c-1.5,1.1-3.8,1.1-5.3,0c-0.4-0.3-0.5-0.6-0.5-1
	c0-2.6-0.4-5.1-1.3-7.5c-1.6-4.1-4.6-6.6-8.8-7.7c-1.5-0.4-3-0.5-4.6-0.5C1.2,6.1,1,5.9,1,5c0-0.9,0-1.8,0-2.8c0-0.7,0.3-1,1-0.9
	c1.6,0.2,3.1,0.4,4.7,0.6c2.4,0.3,4.9,0.5,7.3,0.7c2.4,0.2,4.9,0.3,7.3,0.3c2.6-0.1,5.2-0.3,7.8-0.5c2.9-0.3,5.8-0.6,8.7-1
	c0.1,0,0.2,0,0.4,0c0.5,0,0.8,0.3,0.8,0.8C39,2.7,39,3.2,39,3.7z"/>
</svg>
