<?xml version="1.0" encoding="utf-8"?>
<!-- Generator: Adobe Illustrator 19.0.0, SVG Export Plug-In . SVG Version: 6.00 Build 0)  -->
<svg version="1.1" id="Camada_1" xmlns="http://www.w3.org/2000/svg" xmlns:xlink="http://www.w3.org/1999/xlink" x="0px" y="0px"
	 viewBox="-230.5 254.5 483 52" style="enable-background:new -230.5 254.5 483 52;" xml:space="preserve">
<style type="text/css">
	.st0{fill:#F2F2F2;}
	.st1{fill:#E73557;}
	.st2{fill:#FFFFFF;}
</style>
<g id="XMLID_1550_">
	<g id="XMLID_1551_">
		<path id="XMLID_1552_" class="st0" d="M-206.4,299.8l-8.9-12.7c-2.9-4.2-2.9-9.3,0-13.4l8.9-12.7c2.9-4.1,8.2-6.5,13.8-6.5h420.4
			c5.7,0,10.9,2.5,13.8,6.6l8.9,12.7c2.9,4.2,2.9,9.3,0,13.4l-8.9,12.7c-2.9,4.1-8.1,6.6-13.8,6.6h-420.4
			C-198.3,306.3-203.6,303.9-206.4,299.8z"/>
	</g>
</g>
<g id="XMLID_1539_">
	<g id="XMLID_1545_">
		<g id="XMLID_1546_">
			<path id="XMLID_1547_" class="st1" d="M-221.3,299.8l-7.4-12.7c-2.4-4.2-2.4-9.3,0-13.4l7.4-12.7c2.4-4.1,6.7-6.5,11.5-6.5h15.1
				c4.8,0,9.1,2.5,11.5,6.6l7.4,12.7c2.4,4.2,2.4,9.3,0,13.4l-7.4,12.7c-2.4,4-6.7,6.5-11.5,6.5h-15.1
				C-214.6,306.3-218.9,303.9-221.3,299.8z"/>
		</g>
	</g>
</g>
<g id="XMLID_1540_">
	<path id="XMLID_1541_" class="st2" d="M-202.4,290.1c-3.3,0-6.6,0-9.9,0c-1.9,0-3.6-1.4-3.5-3.5c0-4.1,0-8.2,0-12.3
		c0-1.9,1.1-3.2,2.8-3.5c0.3,0,0.5,0,0.8,0c6.6,0,13.1,0,19.7,0c2.1,0,3.5,1.4,3.5,3.5c0,3.5,0,7.1,0,10.6c0,0.7,0,1.4,0,2.1
		c-0.1,1.8-1.5,3.1-3.3,3.1C-195.7,290.1-199,290.1-202.4,290.1z M-190.5,273.3c-0.2,0.2-0.3,0.3-0.3,0.3c-3,2.7-6.1,5.4-9,8.1
		c-1.4,1.3-3.6,1.3-5,0c-3-2.7-6.1-5.5-9-8.2c-0.1-0.1-0.2-0.1-0.3-0.3c-0.1,0.3-0.1,0.7-0.1,0.9c0,4.1,0,8.2,0,12.3
		c0,1.4,0.8,2.1,2.1,2.1c3.2,0,6.3,0,9.5,0c3.4,0,6.9,0,10.3,0c1.2,0,2-0.8,2-2c0-4.2,0-8.4,0-12.6
		C-190.3,273.9-190.4,273.7-190.5,273.3z M-191.7,272.4L-191.7,272.4c-0.3-0.1-0.5-0.2-0.8-0.2c-6.6,0-13.3,0-19.9,0
		c-0.3,0-0.5,0.1-0.8,0.1c0,0.1-0.1,0.1-0.1,0.2c0.1,0.1,0.2,0.1,0.3,0.2c3,2.6,6,5.4,9,8c0.9,0.9,2.2,0.9,3.2,0
		c2.3-2,4.5-4.1,6.8-6.1C-193.2,273.9-192.5,273.2-191.7,272.4z"/>
</g>
</svg>
