<?xml version="1.0" encoding="utf-8"?>
<!-- Generator: Adobe Illustrator 19.0.0, SVG Export Plug-In . SVG Version: 6.00 Build 0)  -->
<svg version="1.1" id="Camada_1" xmlns="http://www.w3.org/2000/svg" xmlns:xlink="http://www.w3.org/1999/xlink" x="0px" y="0px"
	 viewBox="0 0 48 48" style="enable-background:new 0 0 48 48;" xml:space="preserve">
<style type="text/css">
	.st0{fill:#C20831;}
	.st1{fill:#FFFFFF;stroke:#FFFFFF;stroke-width:0.25;stroke-miterlimit:10;}
</style>
<g id="XMLID_1596_">
	<path id="XMLID_1605_" class="st0" d="M8.4,39.9L2.4,29.5c-2-3.4-2-7.6,0-11L8.4,8.1c2-3.3,5.5-5.4,9.4-5.4h12.3
		c3.9,0,7.4,2.1,9.4,5.4l6.1,10.4c2,3.4,2,7.6,0,11l-6.1,10.4c-2,3.3-5.5,5.4-9.4,5.4H17.8C14,45.3,10.4,43.2,8.4,39.9z"/>
	<g id="XMLID_1597_">
		<path id="XMLID_1601_" class="st1" d="M19.3,13.1c1.9,0,3.9,0,5.8,0c1,0,1.7,0.7,1.7,1.7c0,0.6,0,1.2,0,1.8c0,0.2,0.1,0.3,0.3,0.3
			c2.2,0,4.4,0,6.6,0c0.4,0,0.4,0,0.5,0.4c0.8,2.9,1.5,5.8,2.3,8.6c0.1,0.4,0.1,0.8,0.1,1.2c0,0.9,0,1.7,0,2.6c0,0,0,0.1,0,0.1
			c0,0.3-0.2,0.5-0.4,0.5c-0.2,0-0.4-0.2-0.4-0.5c0-0.6,0-1.2,0-1.9c0-0.7,0.1-1.3-0.1-2c-0.2-0.9-0.5-1.8-0.7-2.8
			c-0.1-0.5-0.1-0.5-0.7-0.5c-1.8,0-3.5,0-5.3,0c-0.1,0-0.2,0-0.3,0c-0.3,0-0.4-0.2-0.4-0.4c0-0.2,0.2-0.4,0.4-0.4
			c0.4,0,0.8,0,1.2,0c1.5,0,3,0,4.4,0c0.2,0,0.3,0,0.2-0.2c-0.3-1.2-0.7-2.4-1-3.7c0-0.2-0.1-0.2-0.3-0.2c-2,0-4.1,0-6.1,0
			c-0.2,0-0.3,0.1-0.3,0.3c0,3,0,6,0,9.1c0,0.5,0,1,0,1.5c0,0.2,0,0.5-0.1,0.7c-0.1,0.2,0,0.2,0.1,0.2c0.6,0,1.2,0,1.7,0
			c0.1,0,0.2,0,0.3,0c0.2,0.1,0.3,0.3,0.3,0.5c0,0.2-0.2,0.3-0.4,0.3c-0.8,0-1.7,0-2.5,0c-1.3,0-2.5,0-3.8,0c-1.4,0-2.8,0-4.1,0
			c-0.2,0-0.3,0-0.2,0.3c0.4,1.3,0.1,2.5-0.9,3.5c-1,0.9-2.2,1.2-3.4,0.7c-1.3-0.5-2-1.5-2.2-2.8c-0.1-0.7,0.1-1.4,0.4-2
			c0.1-0.1,0.1-0.2,0-0.4c-0.2-0.3-0.3-0.6-0.3-1c0-4.6,0-9.1,0-13.7c0-1,0.8-1.7,1.8-1.7C15.3,13.1,17.3,13.1,19.3,13.1
			C19.3,13.1,19.3,13.1,19.3,13.1z M12.5,21.7L12.5,21.7c0,0.5,0,1,0,1.5c0,1.4,0,2.7,0,4.1c0,0.5,0,0.9,0,1.4
			c0,0.3,0.1,0.3,0.3,0.1c1.4-1,3.2-0.9,4.4,0.3c0.2,0.2,0.3,0.2,0.5,0.2c2.4,0,4.8,0,7.3,0c0.7,0,1-0.2,1-1c0-1.3,0-2.6,0-3.9
			c0-3.2,0-6.5,0-9.7c0-0.6-0.3-0.9-0.9-0.9c-3.9,0-7.8,0-11.6,0c-0.7,0-1,0.2-1,0.9C12.5,17.1,12.5,19.4,12.5,21.7z M17.3,31.6
			c0-1.3-1.1-2.5-2.4-2.6c-1.4,0-2.6,1.1-2.6,2.5c0,1.4,1,2.5,2.4,2.6C16.2,34.1,17.3,33.1,17.3,31.6z"/>
		<path id="XMLID_1598_" class="st1" d="M32.3,34.9c-1.8,0-3.4-1.6-3.4-3.4c0-1.8,1.6-3.4,3.4-3.4c1.8,0,3.4,1.6,3.4,3.4
			C35.7,33.4,34.1,34.9,32.3,34.9z M32.3,34.1c1.5,0,2.5-1.1,2.5-2.5c0-1.5-1.1-2.5-2.5-2.5c-1.5,0-2.5,1.1-2.5,2.5
			C29.8,33,30.8,34.1,32.3,34.1z"/>
	</g>
</g>
</svg>
