<?xml version="1.0" encoding="utf-8"?>
<!-- Generator: Adobe Illustrator 19.0.0, SVG Export Plug-In . SVG Version: 6.00 Build 0)  -->
<svg version="1.1" id="Camada_1" xmlns="http://www.w3.org/2000/svg" xmlns:xlink="http://www.w3.org/1999/xlink" x="0px" y="0px"
	 viewBox="-456 260 46 42" style="enable-background:new -456 260 46 42;" xml:space="preserve">
<style type="text/css">
	.st0{fill:#C20831;}
	.st1{fill:#FFFFFF;}
</style>
<g id="XMLID_1583_">
	<path id="XMLID_1586_" class="st0" d="M-448.5,296.7l-6-10.3c-2-3.4-2-7.5,0-10.8l6-10.3c1.9-3.3,5.5-5.3,9.4-5.3h12.3
		c3.9,0,7.4,2,9.4,5.3l6,10.3c2,3.4,2,7.5,0,10.8l-6,10.3c-1.9,3.3-5.5,5.3-9.4,5.3h-12.3C-443,302-446.6,300-448.5,296.7z"/>
	<g id="Page-1_7_">
		<g id="icon-111-search_9_">
			<path id="search_10_" class="st1" d="M-430,285.5c-1.4,1-3.1,1.6-4.9,1.6c-4.7,0-8.5-3.8-8.5-8.4s3.8-8.4,8.5-8.4
				s8.5,3.8,8.5,8.4c0,2.3-0.9,4.4-2.5,5.9l6,5.9c0.3,0.3,0.3,0.7,0,1c-0.3,0.3-0.7,0.3-1,0L-430,285.5L-430,285.5z M-434.8,286.1
				c4.1,0,7.5-3.3,7.5-7.4s-3.4-7.4-7.5-7.4c-4.1,0-7.5,3.3-7.5,7.4C-442.3,282.8-439,286.1-434.8,286.1L-434.8,286.1z"/>
		</g>
	</g>
</g>
</svg>
