<?xml version="1.0" encoding="utf-8"?>
<!-- Generator: Adobe Illustrator 19.0.0, SVG Export Plug-In . SVG Version: 6.00 Build 0)  -->
<svg version="1.1" id="Camada_1" xmlns="http://www.w3.org/2000/svg" xmlns:xlink="http://www.w3.org/1999/xlink" x="0px" y="0px"
	 viewBox="0 0 32 32" style="enable-background:new 0 0 32 32;" xml:space="preserve">
<style type="text/css">
	.st0{fill:#F2F2F2;}
	.st1{fill:#666666;}
</style>
<g id="XMLID_31_">
	<rect id="XMLID_781_" class="st0" width="32" height="32"/>
	<g id="Page-1_3_">
		<g id="XMLID_51_">
			<g id="icon-111-search_9_">
				<path id="search_9_" class="st1" d="M18.4,19.6c-1.1,0.8-2.4,1.2-3.9,1.2c-3.7,0-6.7-3-6.7-6.7s3-6.7,6.7-6.7s6.7,3,6.7,6.7
					c0,1.8-0.7,3.5-2,4.7l4.7,4.7c0.2,0.2,0.2,0.6,0,0.8c-0.2,0.2-0.6,0.2-0.8,0L18.4,19.6L18.4,19.6z M14.5,20
					c3.3,0,5.9-2.6,5.9-5.9s-2.6-5.9-5.9-5.9s-5.9,2.6-5.9,5.9S11.3,20,14.5,20L14.5,20z"/>
			</g>
		</g>
	</g>
</g>
</svg>
