<?xml version="1.0" encoding="utf-8"?>
<!-- Generator: Adobe Illustrator 19.0.0, SVG Export Plug-In . SVG Version: 6.00 Build 0)  -->
<svg version="1.1" id="Camada_1" xmlns="http://www.w3.org/2000/svg" xmlns:xlink="http://www.w3.org/1999/xlink" x="0px" y="0px"
	 viewBox="-455 257 48 48" style="enable-background:new -455 257 48 48;" xml:space="preserve">
<style type="text/css">
	.st0{fill:#C20831;}
	.st1{fill:#FFFFFF;stroke:#FFFFFF;stroke-width:0.25;stroke-miterlimit:10;}
</style>
<g id="XMLID_170_">
	<path id="XMLID_1616_" class="st0" d="M-446.6,296.9l-6-10.4c-2-3.4-2-7.6,0-11l6-10.4c2-3.3,5.5-5.4,9.4-5.4h12.3
		c3.9,0,7.4,2.1,9.4,5.4l6.1,10.4c2,3.4,2,7.6,0,11l-6.1,10.4c-2,3.3-5.5,5.4-9.4,5.4h-12.3C-441,302.3-444.6,300.2-446.6,296.9z"/>
	<g id="package_4_">
		<g id="XMLID_1609_">
			<g id="XMLID_1612_">
				<path id="XMLID_1613_" class="st1" d="M-420.3,293.1h-21.4c-0.7,0-1.4-0.3-1.8-0.8c-0.5-0.5-0.7-1.2-0.7-1.9l1-15.1
					c0.1-1.3,1.2-2.3,2.5-2.3h19.4c1.3,0,2.4,1,2.5,2.3l1,15.1c0,0.7-0.2,1.4-0.7,1.9S-419.6,293.1-420.3,293.1z M-440.7,273.9
					c-0.8,0-1.5,0.6-1.5,1.4l-1,15.1c0,0.4,0.1,0.8,0.4,1.1c0.3,0.3,0.7,0.5,1.1,0.5h21.4c0.4,0,0.8-0.2,1.1-0.5
					c0.3-0.3,0.4-0.7,0.4-1.1l-1-15.1c-0.1-0.8-0.7-1.4-1.5-1.4H-440.7z"/>
			</g>
			<g id="XMLID_1610_">
				<path id="XMLID_1611_" class="st1" d="M-422.7,277c-0.3,0-0.5-0.2-0.5-0.5v-1.1c0-5.3-3.5-9.7-7.8-9.7s-7.8,4.3-7.8,9.7v1.1
					c0,0.3-0.2,0.5-0.5,0.5c-0.3,0-0.5-0.2-0.5-0.5v-1.1c0-5.9,3.9-10.7,8.8-10.7s8.8,4.8,8.8,10.7v1.1
					C-422.2,276.7-422.4,277-422.7,277z"/>
			</g>
		</g>
	</g>
</g>
</svg>
