<?xml version="1.0" encoding="utf-8"?>
<!-- Generator: Adobe Illustrator 19.0.0, SVG Export Plug-In . SVG Version: 6.00 Build 0)  -->
<svg version="1.1" id="Camada_1" xmlns="http://www.w3.org/2000/svg" xmlns:xlink="http://www.w3.org/1999/xlink" x="0px" y="0px"
	 viewBox="-273 396.9 48 48" style="enable-background:new -273 396.9 48 48;" xml:space="preserve">
<style type="text/css">
	.st0{fill:#C20831;}
	.st1{fill:#FFD200;}
</style>
<g id="XMLID_170_">
	<path id="XMLID_1616_" class="st0" d="M-264.6,436.8l-6-10.4c-2-3.4-2-7.6,0-11l6-10.4c2-3.3,5.5-5.4,9.4-5.4h12.3
		c3.9,0,7.4,2.1,9.4,5.4l6.1,10.4c2,3.4,2,7.6,0,11l-6.1,10.4c-2,3.3-5.5,5.4-9.4,5.4h-12.3C-259,442.2-262.6,440.1-264.6,436.8z"/>
	<g id="package_4_">
		<g id="XMLID_1609_">
			<g id="XMLID_1612_">
				<path id="XMLID_1613_" class="st1" d="M-238.3,433h-21.4c-0.7,0-1.4-0.3-1.8-0.8c-0.5-0.5-0.7-1.2-0.7-1.9l1-15.1
					c0.1-1.3,1.2-2.3,2.5-2.3h19.4c1.3,0,2.4,1,2.5,2.3l1,15.1c0,0.7-0.2,1.4-0.7,1.9S-237.6,433-238.3,433z"/>
			</g>
			<g id="XMLID_1610_">
				<path id="XMLID_1611_" class="st1" d="M-240.7,416.9c-0.3,0-0.5-0.2-0.5-0.5v-1.1c0-5.3-3.5-9.7-7.8-9.7s-7.8,4.3-7.8,9.7v1.1
					c0,0.3-0.2,0.5-0.5,0.5c-0.3,0-0.5-0.2-0.5-0.5v-1.1c0-5.9,3.9-10.7,8.8-10.7s8.8,4.8,8.8,10.7v1.1
					C-240.2,416.6-240.4,416.9-240.7,416.9z"/>
			</g>
		</g>
	</g>
</g>
</svg>
