<?xml version="1.0" encoding="utf-8"?>
<!-- Generator: Adobe Illustrator 19.0.0, SVG Export Plug-In . SVG Version: 6.00 Build 0)  -->
<svg version="1.1" id="Camada_1" xmlns="http://www.w3.org/2000/svg" xmlns:xlink="http://www.w3.org/1999/xlink" x="0px" y="0px"
	 viewBox="-455 257 48 48" style="enable-background:new -455 257 48 48;" xml:space="preserve">
<style type="text/css">
	.st0{fill:#C20831;}
	.st1{fill:#FFFFFF;}
</style>
<g id="XMLID_1589_">
	<path id="XMLID_170_" class="st0" d="M-446.6,296.9l-6-10.4c-2-3.4-2-7.6,0-11l6-10.4c2-3.3,5.5-5.4,9.4-5.4h12.3
		c3.9,0,7.4,2.1,9.4,5.4l6.1,10.4c2,3.4,2,7.6,0,11l-6.1,10.4c-2,3.3-5.5,5.4-9.4,5.4h-12.3C-441,302.3-444.6,300.2-446.6,296.9z"/>
</g>
<polygon class="st1" points="-429.5,278.8 -428.3,277.6 -424.9,280.8 -424.9,272.4 -437.9,272.4 -437.9,270.8 -423.4,270.8 
	-423.4,280.9 -420.1,277.6 -418.9,278.8 -424.2,284.1 "/>
<polygon class="st1" points="-438.6,291.2 -438.6,281.1 -441.9,284.4 -443.1,283.2 -437.8,277.9 -436.3,279.4 -432.6,283.2 
	-433.8,284.4 -437.1,281.1 -437.1,289.6 -424.1,289.6 -424.1,291.2 "/>
</svg>
