<?xml version="1.0" encoding="utf-8"?>
<!-- Generator: Adobe Illustrator 19.0.0, SVG Export Plug-In . SVG Version: 6.00 Build 0)  -->
<svg version="1.1" id="Camada_1" xmlns="http://www.w3.org/2000/svg" xmlns:xlink="http://www.w3.org/1999/xlink" x="0px" y="0px"
	 viewBox="0 0 179 117" style="enable-background:new 0 0 179 117;" xml:space="preserve">
<style type="text/css">
	.st0{fill:url(#XMLID_67_);}
	.st1{fill:url(#XMLID_68_);}
	.st2{fill:url(#XMLID_69_);}
	.st3{fill:url(#XMLID_70_);}
	.st4{fill:url(#XMLID_71_);}
	.st5{fill:url(#XMLID_72_);}
	.st6{fill:url(#XMLID_73_);}
	.st7{fill:url(#XMLID_74_);}
	.st8{fill:url(#XMLID_75_);}
	.st9{fill:url(#XMLID_76_);}
	.st10{fill:url(#XMLID_77_);}
	.st11{fill:url(#XMLID_78_);}
	.st12{fill:url(#XMLID_79_);}
	.st13{fill:url(#XMLID_80_);}
	.st14{fill:url(#XMLID_81_);}
	.st15{fill:url(#XMLID_82_);}
	.st16{fill:url(#XMLID_83_);}
	.st17{fill:url(#XMLID_84_);}
	.st18{fill:url(#XMLID_85_);}
	.st19{fill:url(#XMLID_86_);}
	.st20{fill:url(#XMLID_87_);}
	.st21{fill:url(#XMLID_88_);}
	.st22{fill:url(#XMLID_89_);}
	.st23{fill:url(#XMLID_90_);}
	.st24{fill:#007F3F;}
</style>
<g id="XMLID_1625_">
	<g id="XMLID_1627_">
		<g id="XMLID_1630_">
			<g id="XMLID_1678_">
				<linearGradient id="XMLID_67_" gradientUnits="userSpaceOnUse" x1="8.1962" y1="112.1766" x2="8.1962" y2="98.5652">
					<stop  offset="0" style="stop-color:#995B22"/>
					<stop  offset="1" style="stop-color:#683B11"/>
				</linearGradient>
				<path id="XMLID_1689_" class="st0" d="M10.2,110.9c0,0.1,0,0.2,0,0.3c0,0.1-0.1,0.2-0.1,0.3c-0.1,0.1-0.2,0.2-0.3,0.3
					c-0.2,0.1-0.4,0.2-0.6,0.2c-0.2,0-0.4,0.1-0.5,0.1c-0.2,0-0.3,0-0.4,0c-0.1,0-0.2,0-0.2,0H6.2V98.6h1.9c0,0,0.1,0,0.2,0
					c0.1,0,0.3,0,0.4,0c0.2,0,0.3,0.1,0.5,0.1c0.2,0,0.3,0.1,0.5,0.2c0.3,0.2,0.4,0.4,0.4,0.6c0,0.2,0,0.5,0,0.7v3.5
					c0,0.1,0,0.2-0.1,0.3c0,0.1-0.1,0.2-0.2,0.3c-0.1,0.1-0.1,0.1-0.2,0.2c-0.1,0.1-0.2,0.1-0.3,0.2c-0.1,0-0.2,0.1-0.3,0.1
					c-0.1,0-0.1,0-0.1,0c0,0,0,0,0.1,0c0.1,0,0.1,0.1,0.2,0.1c0.1,0,0.2,0.1,0.2,0.1c0.1,0,0.2,0.1,0.2,0.2c0.2,0.2,0.3,0.4,0.4,0.6
					c0,0.2,0,0.4,0,0.7v4C10.2,110.7,10.2,110.8,10.2,110.9z M9.1,106.4c0-0.2,0-0.4-0.1-0.6c0-0.2-0.2-0.3-0.3-0.4
					c-0.2-0.1-0.3-0.2-0.4-0.2c-0.1,0-0.3,0-0.5,0H7.2l0,6.6h0.7c0,0,0.1,0,0.1,0c0.1,0,0.2,0,0.3,0c0.1,0,0.2,0,0.3-0.1
					c0.1,0,0.2-0.1,0.3-0.1c0.1-0.1,0.2-0.2,0.2-0.3c0-0.1,0-0.2,0-0.4V106.4z M9.1,99.8c0-0.2,0-0.4-0.1-0.5c0-0.1-0.2-0.2-0.3-0.3
					c-0.2-0.1-0.5-0.1-0.9-0.1H7.2v5.9h0.6c0.2,0,0.5,0,0.6-0.1c0.2-0.1,0.3-0.2,0.4-0.2c0.1-0.1,0.1-0.2,0.2-0.4
					c0-0.2,0.1-0.4,0.1-0.6V99.8z"/>
				<linearGradient id="XMLID_68_" gradientUnits="userSpaceOnUse" x1="23.4251" y1="112.1766" x2="23.4251" y2="98.5652">
					<stop  offset="0" style="stop-color:#995B22"/>
					<stop  offset="1" style="stop-color:#683B11"/>
				</linearGradient>
				<path id="XMLID_1687_" class="st1" d="M22.9,112.2V98.6H24v13.6H22.9z"/>
				<linearGradient id="XMLID_69_" gradientUnits="userSpaceOnUse" x1="38.7659" y1="112.1766" x2="38.7659" y2="98.5652">
					<stop  offset="0" style="stop-color:#995B22"/>
					<stop  offset="1" style="stop-color:#683B11"/>
				</linearGradient>
				<path id="XMLID_1685_" class="st2" d="M39.9,112.2l-2.2-7v7h-1.1V98.6h1.1v6.1l2.2-6.1h0.8l-2.2,6.1l2.4,7.5H39.9z"/>
				<linearGradient id="XMLID_70_" gradientUnits="userSpaceOnUse" x1="53.9788" y1="112.1766" x2="53.9788" y2="98.5652">
					<stop  offset="0" style="stop-color:#995B22"/>
					<stop  offset="1" style="stop-color:#683B11"/>
				</linearGradient>
				<path id="XMLID_1683_" class="st3" d="M53.4,112.2V98.6h1.1v13.6H53.4z"/>
				<linearGradient id="XMLID_71_" gradientUnits="userSpaceOnUse" x1="69.2958" y1="112.1766" x2="69.2958" y2="98.5652">
					<stop  offset="0" style="stop-color:#995B22"/>
					<stop  offset="1" style="stop-color:#683B11"/>
				</linearGradient>
				<path id="XMLID_1681_" class="st4" d="M70.2,112.2v-2.6l-1.9-7.3v9.9h-1.1V98.6h1l2,8.2v-8.2h1.1v13.6H70.2z"/>
				<linearGradient id="XMLID_72_" gradientUnits="userSpaceOnUse" x1="84.2925" y1="112.1766" x2="84.2925" y2="98.5652">
					<stop  offset="0" style="stop-color:#995B22"/>
					<stop  offset="1" style="stop-color:#683B11"/>
				</linearGradient>
				<path id="XMLID_1679_" class="st5" d="M83.8,112.2V98.6h1.1v13.6H83.8z"/>
			</g>
			<g id="XMLID_1654_">
				<g id="XMLID_1661_">
					<linearGradient id="XMLID_73_" gradientUnits="userSpaceOnUse" x1="11.8918" y1="86.1056" x2="11.8918" y2="49.0691">
						<stop  offset="0" style="stop-color:#995B22"/>
						<stop  offset="1" style="stop-color:#683B11"/>
					</linearGradient>
					<path id="XMLID_1674_" class="st6" d="M17.4,82.7c0,0.3,0,0.6-0.1,0.9c-0.1,0.3-0.2,0.6-0.4,0.8c-0.2,0.3-0.4,0.5-0.8,0.7
						c-0.5,0.3-1,0.5-1.5,0.6c-0.5,0.1-1,0.2-1.4,0.3c-0.5,0-0.8,0.1-1.2,0.1c-0.3,0-0.5,0-0.7,0h-5v-37h5.1c0.1,0,0.3,0,0.7,0
						c0.3,0,0.7,0,1.2,0.1c0.4,0.1,0.9,0.1,1.4,0.3c0.5,0.1,0.9,0.3,1.4,0.6c0.7,0.5,1.1,1,1.2,1.6c0.1,0.6,0.1,1.3,0.1,2v9.6
						c0,0.3-0.1,0.7-0.2,0.9c-0.1,0.3-0.3,0.6-0.6,0.9c-0.1,0.2-0.3,0.3-0.6,0.5c-0.2,0.2-0.5,0.3-0.8,0.4c-0.3,0.1-0.5,0.2-0.7,0.3
						c-0.2,0.1-0.3,0.1-0.3,0.1c0,0,0.1,0,0.3,0.1c0.2,0.1,0.4,0.2,0.6,0.3c0.2,0.1,0.4,0.2,0.6,0.4c0.2,0.1,0.4,0.3,0.6,0.4
						c0.6,0.5,0.9,1.1,1,1.6c0.1,0.5,0.1,1.1,0.1,1.8v11C17.4,82.2,17.4,82.4,17.4,82.7z M14.4,70.4c0-0.6-0.1-1.1-0.2-1.6
						c-0.1-0.5-0.4-0.9-0.9-1.1c-0.5-0.3-0.9-0.4-1.2-0.5c-0.3-0.1-0.8-0.1-1.3-0.1H9.3l0,18h1.8c0,0,0.1,0,0.3,0c0.2,0,0.4,0,0.7,0
						c0.3,0,0.6-0.1,0.8-0.2c0.3-0.1,0.6-0.2,0.8-0.3c0.3-0.2,0.5-0.5,0.5-0.8c0-0.3,0.1-0.6,0.1-1V70.4z M14.4,52.6
						c0-0.6-0.1-1-0.2-1.4c-0.1-0.4-0.4-0.6-0.9-0.8C12.7,50.1,11.9,50,11,50H9.3v16h1.6c0.7,0,1.2-0.1,1.7-0.3
						c0.5-0.2,0.9-0.4,1.2-0.7c0.2-0.2,0.4-0.6,0.5-1.1c0.1-0.5,0.2-1,0.2-1.5V52.6z"/>
					<linearGradient id="XMLID_74_" gradientUnits="userSpaceOnUse" x1="28.2968" y1="86.1491" x2="28.2968" y2="49.1563">
						<stop  offset="0" style="stop-color:#995B22"/>
						<stop  offset="1" style="stop-color:#683B11"/>
					</linearGradient>
					<path id="XMLID_1671_" class="st7" d="M30.8,86.1V70.4c0-0.5-0.1-1-0.2-1.5c-0.1-0.5-0.4-0.9-0.9-1.2c-0.5-0.2-0.9-0.4-1.3-0.5
						c-0.4-0.1-0.9-0.1-1.4-0.1h-1.3v19.1h-2.9v-37h4.9c0,0,0.2,0,0.5,0c0.3,0,0.8,0,1.2,0.1c0.5,0,1,0.1,1.5,0.2
						c0.5,0.1,1,0.3,1.4,0.6c0.8,0.5,1.2,1,1.3,1.6c0.1,0.6,0.1,1.3,0.1,2v9.6c0,0.3,0,0.7-0.1,0.9c-0.1,0.3-0.3,0.6-0.6,0.9
						c-0.1,0.2-0.3,0.3-0.6,0.5c-0.2,0.2-0.5,0.3-0.8,0.4c-0.3,0.1-0.5,0.2-0.7,0.3c-0.2,0.1-0.3,0.1-0.3,0.1c0,0,0.1,0,0.3,0.1
						c0.2,0.1,0.3,0.1,0.6,0.2c0.2,0.1,0.4,0.2,0.7,0.4c0.2,0.1,0.4,0.3,0.6,0.5c0.5,0.6,0.8,1.1,0.9,1.6c0.1,0.5,0.2,1.1,0.2,1.8
						v15.2H30.8z M30.8,52.6c0-0.6-0.1-1-0.2-1.4c-0.1-0.4-0.4-0.6-0.9-0.8c-0.6-0.2-1.4-0.3-2.2-0.3h-1.8V66h1.4
						c0.6,0,1.2-0.1,1.8-0.3c0.6-0.2,1-0.4,1.3-0.7c0.2-0.2,0.4-0.6,0.5-1c0.1-0.5,0.2-1,0.2-1.5V52.6z"/>
					<linearGradient id="XMLID_75_" gradientUnits="userSpaceOnUse" x1="44.3526" y1="86.1056" x2="44.3526" y2="48.8947">
						<stop  offset="0" style="stop-color:#995B22"/>
						<stop  offset="1" style="stop-color:#683B11"/>
					</linearGradient>
					<path id="XMLID_1668_" class="st8" d="M46.9,86.1v-19h-5.2v19h-2.9V53.4c0-0.6,0.1-1.1,0.2-1.7c0.1-0.6,0.3-1,0.7-1.5
						c0.4-0.4,0.9-0.8,1.7-1c0.8-0.2,1.8-0.4,3.1-0.4c1.3,0,2.3,0.1,3,0.4c0.7,0.3,1.3,0.6,1.6,1c0.3,0.4,0.6,0.9,0.7,1.4
						c0.1,0.5,0.1,1.1,0.1,1.6v32.8H46.9z M46.9,52.2c0-0.3,0-0.5-0.1-0.8c0-0.3-0.1-0.5-0.3-0.8c-0.2-0.2-0.4-0.4-0.8-0.6
						c-0.3-0.2-0.8-0.2-1.4-0.2c-0.6,0-1,0.1-1.4,0.2c-0.3,0.1-0.6,0.3-0.8,0.5c-0.2,0.2-0.3,0.5-0.4,0.8c-0.1,0.3-0.1,0.6-0.1,0.9
						v13.5h5.2V52.2z"/>
					<linearGradient id="XMLID_76_" gradientUnits="userSpaceOnUse" x1="60.7142" y1="86.367" x2="60.7142" y2="48.8947">
						<stop  offset="0" style="stop-color:#995B22"/>
						<stop  offset="1" style="stop-color:#683B11"/>
					</linearGradient>
					<path id="XMLID_1666_" class="st9" d="M66.1,83.5c-0.1,0.5-0.3,1-0.7,1.4c-0.4,0.4-0.9,0.8-1.6,1c-0.7,0.3-1.7,0.4-3,0.4
						c-1.3,0-2.3-0.1-3.1-0.4c-0.8-0.2-1.3-0.6-1.7-1c-0.4-0.4-0.6-0.9-0.7-1.5c-0.1-0.5-0.2-1.1-0.2-1.6v-7.7l3,0v8.9
						c0,0.3,0,0.6,0.1,0.9c0.1,0.3,0.2,0.6,0.4,0.8c0.2,0.2,0.5,0.4,0.8,0.6c0.3,0.1,0.8,0.2,1.4,0.2c0.6,0,1-0.1,1.4-0.2
						c0.3-0.2,0.6-0.4,0.7-0.6c0.2-0.2,0.3-0.5,0.3-0.8c0-0.3,0.1-0.6,0.1-0.8V75c0-0.6-0.1-1.1-0.2-1.6c-0.1-0.4-0.3-0.9-0.5-1.5
						c-0.1-0.4-0.3-0.8-0.5-1.2c-0.2-0.4-0.3-0.7-0.5-1c-0.2-0.3-0.4-0.7-0.7-1c-0.2-0.3-0.5-0.7-0.8-1.2l-2.9-4.4
						c-0.5-0.7-0.8-1.4-1.1-1.9c-0.2-0.6-0.4-1.2-0.6-2c-0.2-0.8-0.3-1.5-0.3-2c0-0.6,0-1.2,0-2v-1.8c0-0.6,0-1.1,0.1-1.6
						c0.1-0.5,0.3-1,0.7-1.4c0.4-0.4,0.9-0.8,1.7-1c0.7-0.2,1.7-0.4,3-0.4c1.3,0,2.3,0.1,3.1,0.4c0.7,0.2,1.3,0.6,1.7,1
						c0.4,0.4,0.6,0.9,0.7,1.5c0.1,0.6,0.1,1.1,0.1,1.7v6.8h-3v-8.1c0-0.3,0-0.6-0.1-0.9c-0.1-0.3-0.2-0.6-0.3-0.8
						c-0.2-0.2-0.4-0.4-0.8-0.5c-0.3-0.1-0.8-0.2-1.3-0.2c-0.6,0-1.1,0.1-1.4,0.2c-0.3,0.2-0.6,0.3-0.8,0.6
						c-0.2,0.2-0.3,0.5-0.3,0.8c0,0.3-0.1,0.6-0.1,0.8v2.2c0,0.8,0,1.6,0,2.2c0,0.6,0.1,1.4,0.4,2.2c0.2,0.7,0.4,1.4,0.7,1.9
						c0.3,0.5,0.6,1.1,1,1.8l2.7,4.2c0.3,0.5,0.7,1.1,1.1,1.8c0.4,0.7,0.8,1.4,1.1,2.2c0.2,0.4,0.3,0.8,0.4,1.1
						c0.1,0.3,0.2,0.6,0.3,1c0.1,0.3,0.2,0.7,0.2,1c0,0.4,0.1,0.8,0.1,1.2v7C66.2,82.5,66.2,83,66.1,83.5z"/>
					<linearGradient id="XMLID_77_" gradientUnits="userSpaceOnUse" x1="73.1537" y1="86.1056" x2="73.1537" y2="49.0691">
						<stop  offset="0" style="stop-color:#995B22"/>
						<stop  offset="1" style="stop-color:#683B11"/>
					</linearGradient>
					<path id="XMLID_1664_" class="st10" d="M71.7,86.1v-37h2.9v37H71.7z"/>
					<linearGradient id="XMLID_78_" gradientUnits="userSpaceOnUse" x1="84.286" y1="86.1056" x2="84.286" y2="49.0691">
						<stop  offset="0" style="stop-color:#995B22"/>
						<stop  offset="1" style="stop-color:#683B11"/>
					</linearGradient>
					<path id="XMLID_1662_" class="st11" d="M80.3,86.1v-37h2.9v35.5h5.1v1.5H80.3z"/>
				</g>
				<g id="XMLID_1655_">
					<linearGradient id="XMLID_79_" gradientUnits="userSpaceOnUse" x1="99.0679" y1="92.1874" x2="99.0679" y2="44.6811">
						<stop  offset="0" style="stop-color:#995B22"/>
						<stop  offset="1" style="stop-color:#683B11"/>
					</linearGradient>
					<path id="XMLID_1659_" class="st12" d="M98.6,92.2h-4.2l7.7-45.7h-6.5v4.5h-3.7v-6.4h14.3L98.6,92.2z"/>
					<linearGradient id="XMLID_80_" gradientUnits="userSpaceOnUse" x1="119.4118" y1="92.523" x2="119.4118" y2="44.4575">
						<stop  offset="0" style="stop-color:#995B22"/>
						<stop  offset="1" style="stop-color:#683B11"/>
					</linearGradient>
					<path id="XMLID_1656_" class="st13" d="M126.1,89.6c-0.2,0.6-0.6,1.1-1.2,1.5c-0.5,0.4-1.2,0.8-2.1,1c-0.9,0.3-2,0.4-3.3,0.4
						c-2.6,0-4.5-0.5-5.6-1.4c-1.1-0.9-1.6-2-1.6-3.3V50.2c0-0.6,0.1-1.2,0.2-1.9c0.1-0.7,0.4-1.3,0.9-1.9c0.5-0.6,1.2-1,2.2-1.4
						c1-0.4,2.3-0.6,4-0.6c1.6,0,2.9,0.2,3.9,0.6c0.9,0.4,1.6,0.9,2.1,1.4c0.4,0.6,0.7,1.2,0.8,1.8c0.1,0.7,0.2,1.3,0.2,1.8v37.6
						C126.5,88.4,126.4,89,126.1,89.6z M122.7,48.6c0-0.3,0-0.7-0.1-1.1c-0.1-0.4-0.2-0.7-0.4-1c-0.2-0.3-0.5-0.5-1-0.7
						c-0.4-0.2-1.1-0.3-1.8-0.3c-0.7,0-1.3,0.1-1.7,0.3c-0.4,0.2-0.8,0.4-1,0.7c-0.2,0.3-0.4,0.6-0.5,1c-0.1,0.4-0.1,0.7-0.1,1.1
						v40.3c0,0.6,0.3,1.2,0.9,1.6c0.6,0.5,1.4,0.7,2.4,0.7c1.2,0,2-0.3,2.5-0.7c0.5-0.4,0.8-1,0.8-1.6V48.6z"/>
				</g>
			</g>
			<g id="XMLID_1637_">
				<linearGradient id="XMLID_81_" gradientUnits="userSpaceOnUse" x1="11.8918" y1="86.1056" x2="11.8918" y2="49.0691">
					<stop  offset="0" style="stop-color:#995B22"/>
					<stop  offset="1" style="stop-color:#683B11"/>
				</linearGradient>
				<path id="XMLID_1650_" class="st14" d="M17.4,82.7c0,0.3,0,0.6-0.1,0.9c-0.1,0.3-0.2,0.6-0.4,0.8c-0.2,0.3-0.4,0.5-0.8,0.7
					c-0.5,0.3-1,0.5-1.5,0.6c-0.5,0.1-1,0.2-1.4,0.3c-0.5,0-0.8,0.1-1.2,0.1c-0.3,0-0.5,0-0.7,0h-5v-37h5.1c0.1,0,0.3,0,0.7,0
					c0.3,0,0.7,0,1.2,0.1c0.4,0.1,0.9,0.1,1.4,0.3c0.5,0.1,0.9,0.3,1.4,0.6c0.7,0.5,1.1,1,1.2,1.6c0.1,0.6,0.1,1.3,0.1,2v9.6
					c0,0.3-0.1,0.7-0.2,0.9c-0.1,0.3-0.3,0.6-0.6,0.9c-0.1,0.2-0.3,0.3-0.6,0.5c-0.2,0.2-0.5,0.3-0.8,0.4c-0.3,0.1-0.5,0.2-0.7,0.3
					c-0.2,0.1-0.3,0.1-0.3,0.1c0,0,0.1,0,0.3,0.1c0.2,0.1,0.4,0.2,0.6,0.3c0.2,0.1,0.4,0.2,0.6,0.4c0.2,0.1,0.4,0.3,0.6,0.4
					c0.6,0.5,0.9,1.1,1,1.6c0.1,0.5,0.1,1.1,0.1,1.8v11C17.4,82.2,17.4,82.4,17.4,82.7z M14.4,70.4c0-0.6-0.1-1.1-0.2-1.6
					c-0.1-0.5-0.4-0.9-0.9-1.1c-0.5-0.3-0.9-0.4-1.2-0.5c-0.3-0.1-0.8-0.1-1.3-0.1H9.3l0,18h1.8c0,0,0.1,0,0.3,0c0.2,0,0.4,0,0.7,0
					c0.3,0,0.6-0.1,0.8-0.2c0.3-0.1,0.6-0.2,0.8-0.3c0.3-0.2,0.5-0.5,0.5-0.8c0-0.3,0.1-0.6,0.1-1V70.4z M14.4,52.6
					c0-0.6-0.1-1-0.2-1.4c-0.1-0.4-0.4-0.6-0.9-0.8C12.7,50.1,11.9,50,11,50H9.3v16h1.6c0.7,0,1.2-0.1,1.7-0.3
					c0.5-0.2,0.9-0.4,1.2-0.7c0.2-0.2,0.4-0.6,0.5-1.1c0.1-0.5,0.2-1,0.2-1.5V52.6z"/>
				<linearGradient id="XMLID_82_" gradientUnits="userSpaceOnUse" x1="28.2968" y1="86.1491" x2="28.2968" y2="49.1563">
					<stop  offset="0" style="stop-color:#995B22"/>
					<stop  offset="1" style="stop-color:#683B11"/>
				</linearGradient>
				<path id="XMLID_1647_" class="st15" d="M30.8,86.1V70.4c0-0.5-0.1-1-0.2-1.5c-0.1-0.5-0.4-0.9-0.9-1.2c-0.5-0.2-0.9-0.4-1.3-0.5
					c-0.4-0.1-0.9-0.1-1.4-0.1h-1.3v19.1h-2.9v-37h4.9c0,0,0.2,0,0.5,0c0.3,0,0.8,0,1.2,0.1c0.5,0,1,0.1,1.5,0.2
					c0.5,0.1,1,0.3,1.4,0.6c0.8,0.5,1.2,1,1.3,1.6c0.1,0.6,0.1,1.3,0.1,2v9.6c0,0.3,0,0.7-0.1,0.9c-0.1,0.3-0.3,0.6-0.6,0.9
					c-0.1,0.2-0.3,0.3-0.6,0.5c-0.2,0.2-0.5,0.3-0.8,0.4c-0.3,0.1-0.5,0.2-0.7,0.3c-0.2,0.1-0.3,0.1-0.3,0.1c0,0,0.1,0,0.3,0.1
					c0.2,0.1,0.3,0.1,0.6,0.2c0.2,0.1,0.4,0.2,0.7,0.4c0.2,0.1,0.4,0.3,0.6,0.5c0.5,0.6,0.8,1.1,0.9,1.6c0.1,0.5,0.2,1.1,0.2,1.8
					v15.2H30.8z M30.8,52.6c0-0.6-0.1-1-0.2-1.4c-0.1-0.4-0.4-0.6-0.9-0.8c-0.6-0.2-1.4-0.3-2.2-0.3h-1.8V66h1.4
					c0.6,0,1.2-0.1,1.8-0.3c0.6-0.2,1-0.4,1.3-0.7c0.2-0.2,0.4-0.6,0.5-1c0.1-0.5,0.2-1,0.2-1.5V52.6z"/>
				<linearGradient id="XMLID_83_" gradientUnits="userSpaceOnUse" x1="44.3526" y1="86.1056" x2="44.3526" y2="48.8947">
					<stop  offset="0" style="stop-color:#995B22"/>
					<stop  offset="1" style="stop-color:#683B11"/>
				</linearGradient>
				<path id="XMLID_1644_" class="st16" d="M46.9,86.1v-19h-5.2v19h-2.9V53.4c0-0.6,0.1-1.1,0.2-1.7c0.1-0.6,0.3-1,0.7-1.5
					c0.4-0.4,0.9-0.8,1.7-1c0.8-0.2,1.8-0.4,3.1-0.4c1.3,0,2.3,0.1,3,0.4c0.7,0.3,1.3,0.6,1.6,1c0.3,0.4,0.6,0.9,0.7,1.4
					c0.1,0.5,0.1,1.1,0.1,1.6v32.8H46.9z M46.9,52.2c0-0.3,0-0.5-0.1-0.8c0-0.3-0.1-0.5-0.3-0.8c-0.2-0.2-0.4-0.4-0.8-0.6
					c-0.3-0.2-0.8-0.2-1.4-0.2c-0.6,0-1,0.1-1.4,0.2c-0.3,0.1-0.6,0.3-0.8,0.5c-0.2,0.2-0.3,0.5-0.4,0.8c-0.1,0.3-0.1,0.6-0.1,0.9
					v13.5h5.2V52.2z"/>
				<linearGradient id="XMLID_84_" gradientUnits="userSpaceOnUse" x1="60.7142" y1="86.367" x2="60.7142" y2="48.8947">
					<stop  offset="0" style="stop-color:#995B22"/>
					<stop  offset="1" style="stop-color:#683B11"/>
				</linearGradient>
				<path id="XMLID_1642_" class="st17" d="M66.1,83.5c-0.1,0.5-0.3,1-0.7,1.4c-0.4,0.4-0.9,0.8-1.6,1c-0.7,0.3-1.7,0.4-3,0.4
					c-1.3,0-2.3-0.1-3.1-0.4c-0.8-0.2-1.3-0.6-1.7-1c-0.4-0.4-0.6-0.9-0.7-1.5c-0.1-0.5-0.2-1.1-0.2-1.6v-7.7l3,0v8.9
					c0,0.3,0,0.6,0.1,0.9c0.1,0.3,0.2,0.6,0.4,0.8c0.2,0.2,0.5,0.4,0.8,0.6c0.3,0.1,0.8,0.2,1.4,0.2c0.6,0,1-0.1,1.4-0.2
					c0.3-0.2,0.6-0.4,0.7-0.6c0.2-0.2,0.3-0.5,0.3-0.8c0-0.3,0.1-0.6,0.1-0.8V75c0-0.6-0.1-1.1-0.2-1.6c-0.1-0.4-0.3-0.9-0.5-1.5
					c-0.1-0.4-0.3-0.8-0.5-1.2c-0.2-0.4-0.3-0.7-0.5-1c-0.2-0.3-0.4-0.7-0.7-1c-0.2-0.3-0.5-0.7-0.8-1.2l-2.9-4.4
					c-0.5-0.7-0.8-1.4-1.1-1.9c-0.2-0.6-0.4-1.2-0.6-2c-0.2-0.8-0.3-1.5-0.3-2c0-0.6,0-1.2,0-2v-1.8c0-0.6,0-1.1,0.1-1.6
					c0.1-0.5,0.3-1,0.7-1.4c0.4-0.4,0.9-0.8,1.7-1c0.7-0.2,1.7-0.4,3-0.4c1.3,0,2.3,0.1,3.1,0.4c0.7,0.2,1.3,0.6,1.7,1
					c0.4,0.4,0.6,0.9,0.7,1.5c0.1,0.6,0.1,1.1,0.1,1.7v6.8h-3v-8.1c0-0.3,0-0.6-0.1-0.9c-0.1-0.3-0.2-0.6-0.3-0.8
					c-0.2-0.2-0.4-0.4-0.8-0.5c-0.3-0.1-0.8-0.2-1.3-0.2c-0.6,0-1.1,0.1-1.4,0.2c-0.3,0.2-0.6,0.3-0.8,0.6c-0.2,0.2-0.3,0.5-0.3,0.8
					c0,0.3-0.1,0.6-0.1,0.8v2.2c0,0.8,0,1.6,0,2.2c0,0.6,0.1,1.4,0.4,2.2c0.2,0.7,0.4,1.4,0.7,1.9c0.3,0.5,0.6,1.1,1,1.8l2.7,4.2
					c0.3,0.5,0.7,1.1,1.1,1.8c0.4,0.7,0.8,1.4,1.1,2.2c0.2,0.4,0.3,0.8,0.4,1.1c0.1,0.3,0.2,0.6,0.3,1c0.1,0.3,0.2,0.7,0.2,1
					c0,0.4,0.1,0.8,0.1,1.2v7C66.2,82.5,66.2,83,66.1,83.5z"/>
				<linearGradient id="XMLID_85_" gradientUnits="userSpaceOnUse" x1="73.1537" y1="86.1056" x2="73.1537" y2="49.0691">
					<stop  offset="0" style="stop-color:#995B22"/>
					<stop  offset="1" style="stop-color:#683B11"/>
				</linearGradient>
				<path id="XMLID_1640_" class="st18" d="M71.7,86.1v-37h2.9v37H71.7z"/>
				<linearGradient id="XMLID_86_" gradientUnits="userSpaceOnUse" x1="84.286" y1="86.1056" x2="84.286" y2="49.0691">
					<stop  offset="0" style="stop-color:#995B22"/>
					<stop  offset="1" style="stop-color:#683B11"/>
				</linearGradient>
				<path id="XMLID_1638_" class="st19" d="M80.3,86.1v-37h2.9v35.5h5.1v1.5H80.3z"/>
			</g>
			<g id="XMLID_1631_">
				<linearGradient id="XMLID_87_" gradientUnits="userSpaceOnUse" x1="99.0679" y1="92.1874" x2="99.0679" y2="44.6811">
					<stop  offset="0" style="stop-color:#995B22"/>
					<stop  offset="1" style="stop-color:#683B11"/>
				</linearGradient>
				<path id="XMLID_1635_" class="st20" d="M98.6,92.2h-4.2l7.7-45.7h-6.5v4.5h-3.7v-6.4h14.3L98.6,92.2z"/>
				<linearGradient id="XMLID_88_" gradientUnits="userSpaceOnUse" x1="119.4118" y1="92.523" x2="119.4118" y2="44.4575">
					<stop  offset="0" style="stop-color:#995B22"/>
					<stop  offset="1" style="stop-color:#683B11"/>
				</linearGradient>
				<path id="XMLID_1632_" class="st21" d="M126.1,89.6c-0.2,0.6-0.6,1.1-1.2,1.5c-0.5,0.4-1.2,0.8-2.1,1c-0.9,0.3-2,0.4-3.3,0.4
					c-2.6,0-4.5-0.5-5.6-1.4c-1.1-0.9-1.6-2-1.6-3.3V50.2c0-0.6,0.1-1.2,0.2-1.9c0.1-0.7,0.4-1.3,0.9-1.9c0.5-0.6,1.2-1,2.2-1.4
					c1-0.4,2.3-0.6,4-0.6c1.6,0,2.9,0.2,3.9,0.6c0.9,0.4,1.6,0.9,2.1,1.4c0.4,0.6,0.7,1.2,0.8,1.8c0.1,0.7,0.2,1.3,0.2,1.8v37.6
					C126.5,88.4,126.4,89,126.1,89.6z M122.7,48.6c0-0.3,0-0.7-0.1-1.1c-0.1-0.4-0.2-0.7-0.4-1c-0.2-0.3-0.5-0.5-1-0.7
					c-0.4-0.2-1.1-0.3-1.8-0.3c-0.7,0-1.3,0.1-1.7,0.3c-0.4,0.2-0.8,0.4-1,0.7c-0.2,0.3-0.4,0.6-0.5,1c-0.1,0.4-0.1,0.7-0.1,1.1
					v40.3c0,0.6,0.3,1.2,0.9,1.6c0.6,0.5,1.4,0.7,2.4,0.7c1.2,0,2-0.3,2.5-0.7c0.5-0.4,0.8-1,0.8-1.6V48.6z"/>
			</g>
		</g>
		<linearGradient id="XMLID_89_" gradientUnits="userSpaceOnUse" x1="47.1616" y1="44.4838" x2="47.1616" y2="44.0533">
			<stop  offset="0" style="stop-color:#995B22"/>
			<stop  offset="1" style="stop-color:#683B11"/>
		</linearGradient>
		<rect id="XMLID_1629_" x="6" y="44.1" class="st22" width="82.3" height="0.4"/>
		<linearGradient id="XMLID_90_" gradientUnits="userSpaceOnUse" x1="47.1616" y1="89.1482" x2="47.1616" y2="88.7176">
			<stop  offset="0" style="stop-color:#995B22"/>
			<stop  offset="1" style="stop-color:#683B11"/>
		</linearGradient>
		<rect id="XMLID_1628_" x="6" y="88.7" class="st23" width="82.3" height="0.4"/>
	</g>
	<path id="XMLID_1626_" class="st24" d="M134.3,23c0,0-6.2-9.2-16-9.8c-7.5-0.6-14.1,9.8-14.1,9.8s9.5-2.3,14.2-1.8
		C126.1,21.3,133,26,133,26s-10.1-2.8-14.7,1.4s-1.9,14.3-1.9,14.3s2.4-8.1,7-10.3s11.5-1.9,11.5-1.9s-6.9,2.5-5.5,10.5
		c1.4,8,13.4,12.4,13.4,12.4s-7-9.6-5.7-21.6c10,12,10.6,26.1,10.6,26.1s1.2,22.1-9.6,38.5c10.4,0.8,10.4,0.8,10.4,0.8
		s4.5-12.1,4.8-32.9C152.3,43,144.4,33,144.4,33s6.5-0.2,10.8,11.3c1.9-13.2-10.9-16.6-10.9-16.6s11.7-0.6,18.6,6.3
		c6.9,6.9,9.4,13.8,9.4,13.8s3.3-13-4.8-20c-8.1-7-23.3-3-23.3-3s1.7-4,23.2-3.6c-5-3.2-19.5-3.1-19.5-3.1s6.8-6.8,22.5-4.9
		c-11.7-7.6-20.4-4.6-20.4-4.6s-7.5,1.6-9.6,11.7c0,0-0.6-11.1,1.2-15.4c-11.6,7-7.3,18.4-7.3,18.4"/>
</g>
</svg>
